<svg width="24" height="24" viewBox="0 0 24 24" fill="none" xmlns="http://www.w3.org/2000/svg">
<path d="M22.3467 23.0393H22.1816V22.9883H22.5695V23.0393H22.4044V23.5895H22.3467V23.0393ZM22.6742 22.9883H22.7346L22.9224 23.4379L23.1103 22.9883H23.1707V23.5895H23.113V23.1198L22.9385 23.5345H22.905L22.7292 23.1198V23.5895H22.6742V22.9883Z" fill="black"/>
<path d="M15.6616 12.6716H2.11916C1.683 12.6716 1.32736 12.3159 1.32736 11.8798C1.32736 11.4436 1.683 11.088 2.11916 11.088H15.6616C18.6718 11.088 21.1197 8.63877 21.1197 5.62993C21.1197 2.62109 18.6718 0.171875 15.6616 0.171875H1.07774V0.672454H9.41043C12.1442 0.672454 14.3692 2.8962 14.3692 5.63127C14.3692 8.36633 12.1455 10.5901 9.41043 10.5901H2.11916C1.40654 10.5901 0.828125 11.1698 0.828125 11.8811C0.828125 12.5924 1.40788 13.1722 2.11916 13.1722H9.41043C12.1442 13.1722 14.3692 15.3959 14.3692 18.131V23.589H21.1197V18.131C21.1197 15.1208 18.6718 12.6729 15.6616 12.6729V12.6716Z" fill="black"/>
</svg>
