<svg width="164" height="46" viewBox="0 0 164 46" fill="none" xmlns="http://www.w3.org/2000/svg">
<rect width="46" height="46" rx="23" fill="#F3F3F3"/>
<path d="M33.3467 34.0393H33.1816V33.9883H33.5695V34.0393H33.4044V34.5895H33.3467V34.0393ZM33.6742 33.9883H33.7346L33.9224 34.4379L34.1103 33.9883H34.1707V34.5895H34.113V34.1198L33.9385 34.5345H33.905L33.7292 34.1198V34.5895H33.6742V33.9883Z" fill="black"/>
<path d="M26.6616 23.6716H13.1192C12.683 23.6716 12.3274 23.3159 12.3274 22.8798C12.3274 22.4436 12.683 22.088 13.1192 22.088H26.6616C29.6718 22.088 32.1197 19.6388 32.1197 16.6299C32.1197 13.6211 29.6718 11.1719 26.6616 11.1719H12.0777V11.6725H20.4104C23.1442 11.6725 25.3692 13.8962 25.3692 16.6313C25.3692 19.3663 23.1455 21.5901 20.4104 21.5901H13.1192C12.4065 21.5901 11.8281 22.1698 11.8281 22.8811C11.8281 23.5924 12.4079 24.1722 13.1192 24.1722H20.4104C23.1442 24.1722 25.3692 26.3959 25.3692 29.131V34.589H32.1197V29.131C32.1197 26.1208 29.6718 23.6729 26.6616 23.6729V23.6716Z" fill="black"/>
<path d="M122.69 34.7919V22.7797C122.69 22.3313 122.672 21.7408 122.541 21.1481C122.465 20.8084 122.346 20.3689 122.081 19.9648C121.791 19.5208 121.42 19.2478 120.949 19.1301C120.789 19.0902 120.621 19.0702 120.448 19.0702C120.239 19.0702 120.017 19.099 119.77 19.1568C119.171 19.2988 118.658 19.5763 118.279 19.8006C117.599 20.2024 116.938 20.7107 116.194 21.3967C115.457 22.076 114.74 22.8374 113.996 23.721C113.923 23.8098 113.89 23.8919 113.89 23.9963C113.892 26.9377 113.892 34.7852 113.892 34.7852H110.331V22.7908C110.331 22.2802 110.311 21.6764 110.169 21.0815C110.074 20.6774 109.96 20.3733 109.807 20.1002C109.652 19.8228 109.472 19.6096 109.259 19.4476C108.926 19.1901 108.546 19.0658 108.1 19.0658C107.929 19.0658 107.745 19.0857 107.554 19.1235C107.032 19.2278 106.526 19.4343 105.918 19.7961C105.252 20.1913 104.599 20.6908 103.858 21.3701C102.961 22.1937 102.18 23.0794 101.598 23.7565C101.547 23.8164 101.536 23.8742 101.536 23.9607V34.783H97.9883V16.6904H101.536V23.2903C102.468 21.7696 103.474 20.4621 104.606 19.2966C105.561 18.3132 106.511 17.5495 107.507 16.9635C108.18 16.5683 108.817 16.2997 109.452 16.1443C109.849 16.0466 110.209 16 110.551 16C110.789 16 111.019 16.0244 111.241 16.071C111.947 16.2198 112.527 16.5905 112.962 17.1721C113.29 17.6139 113.517 18.1201 113.674 18.7661C113.799 19.2789 113.861 19.7428 113.868 20.1846C113.876 20.9172 113.879 21.652 113.883 22.3846L113.888 23.3059C114.618 22.1137 115.386 21.0615 116.236 20.0869C117.171 19.0147 118.101 18.16 119.082 17.4718C119.881 16.9102 120.605 16.5306 121.367 16.2775C121.897 16.0999 122.379 16.0111 122.845 16.0044H122.896C123.924 16.0044 124.741 16.3974 125.323 17.1744C125.667 17.6339 125.902 18.1711 126.057 18.8637C126.182 19.4121 126.244 19.9826 126.244 20.5598V34.7874H122.685L122.69 34.7919Z" fill="white"/>
<path d="M82.3701 35.3784C82.0926 35.3784 81.8174 35.354 81.551 35.3029C80.5675 35.1187 79.7861 34.6236 79.2311 33.8267C78.8959 33.3449 78.6606 32.7788 78.5118 32.0973C78.4075 31.6178 78.3564 31.0895 78.3564 30.4812C78.3564 25.9858 78.3564 16.8352 78.3564 16.7774V16.6975H81.915V29.0915C81.915 29.6909 81.9616 30.1726 82.066 30.6055C82.1881 31.1117 82.3723 31.5046 82.6476 31.842C83.0983 32.397 83.7132 32.6767 84.4746 32.6767C84.5457 32.6767 84.6167 32.6745 84.6877 32.6701C85.3848 32.6257 86.0575 32.4015 86.81 31.9663C87.5937 31.5135 88.2952 30.9207 89.0211 30.1038C89.6005 29.4511 90.1333 28.7075 90.6505 27.8328C90.7038 27.7418 90.7282 27.653 90.7282 27.5486C90.7282 24.03 90.7282 16.7752 90.7282 16.7752V16.6953H94.2757V34.7879H90.7615V28.3012C90.4685 28.9983 90.12 29.6731 89.7293 30.3125C88.899 31.6667 87.9333 32.7611 86.7812 33.6535C85.8199 34.3972 84.8565 34.8945 83.8331 35.1675C83.3136 35.3074 82.8341 35.374 82.3679 35.374L82.3701 35.3784Z" fill="white"/>
<path d="M137.788 35.3791C137.018 35.3791 136.245 35.2903 135.497 35.1127C133.986 34.7575 132.691 34.0427 131.65 32.9904C130.818 32.1491 130.198 31.1656 129.757 29.9802C129.41 29.0567 129.193 28.091 129.111 27.112C129.084 26.7945 129.064 26.4771 129.046 26.1596C129.046 26.1596 129.02 25.7157 129.02 25.7134C129.031 24.4836 129.186 23.3714 129.497 22.3058C129.903 20.9072 130.527 19.7484 131.404 18.765C132.667 17.3464 134.296 16.4651 136.241 16.1477C136.812 16.0544 137.382 16.0078 137.939 16.0078C138.998 16.0078 140.044 16.1787 141.043 16.5162C142.21 16.9091 143.236 17.5462 144.089 18.4076C145.065 19.3955 145.758 20.5876 146.204 22.0527C146.439 22.8253 146.588 23.6245 146.659 24.4969C146.726 25.3094 146.724 26.1108 146.655 26.8745C146.504 28.5283 146.073 29.9513 145.341 31.2233C144.69 32.3489 143.831 33.2701 142.788 33.9628C141.806 34.6132 140.703 35.0417 139.504 35.237C138.932 35.3303 138.357 35.3791 137.793 35.3791H137.788ZM135.286 19.0047C134.634 19.0047 134.034 19.0758 133.459 19.2223C131.897 19.6197 130.793 20.4744 130.176 21.7664C129.912 22.3191 129.757 22.9341 129.701 23.6489C129.619 24.7034 129.825 25.729 130.32 26.6969C130.88 27.7935 131.732 28.7659 132.927 29.6716C134.019 30.4996 135.275 31.159 136.661 31.6296C137.961 32.0714 139.18 32.28 140.497 32.2867C141.025 32.2867 141.835 32.2268 142.688 31.9448C143.915 31.5408 144.83 30.8193 145.412 29.8026C145.698 29.2986 145.884 28.7525 145.98 28.1287C146.08 27.4872 146.082 26.8967 145.987 26.3239C145.802 25.2006 145.298 24.1683 144.45 23.1649C143.716 22.2947 142.79 21.5266 141.698 20.8828C139.868 19.8017 138.024 19.1979 136.061 19.038C135.795 19.0158 135.533 19.0047 135.282 19.0047H135.286Z" fill="white"/>
<path d="M149.322 34.7897V16.6971H152.825V22.6909C153.48 21.2191 154.259 19.9759 155.202 18.8904C155.997 17.9758 156.812 17.2809 157.691 16.7681C158.366 16.373 158.976 16.1443 159.609 16.0488C159.817 16.0178 160.024 16 160.217 16C160.741 16 161.225 16.1177 161.653 16.3508C162.06 16.5705 162.39 16.8991 162.666 17.3608C162.899 17.7515 163.065 18.2044 163.185 18.7883C163.294 19.3144 163.347 19.876 163.349 20.4998C163.349 20.6175 163.285 20.6908 163.221 20.7551L159.778 24.1583C159.795 23.5345 159.778 22.9085 159.718 22.2869C159.713 22.2358 159.709 22.1892 159.704 22.147C159.647 21.561 159.536 20.7973 159.191 20.0714C159.087 19.8494 158.958 19.6452 158.81 19.4653C158.554 19.1545 158.221 18.9969 157.82 18.9969C157.711 18.9969 157.595 19.008 157.478 19.0325C157.018 19.1213 156.585 19.3099 156.115 19.623C155.442 20.0736 154.82 20.6575 154.163 21.4611C153.753 21.965 153.355 22.5267 152.949 23.1815C152.893 23.2726 152.867 23.3591 152.867 23.4613V34.7941H149.319L149.322 34.7897Z" fill="white"/>
<path d="M160.02 33.8812H159.747V33.7969H160.389V33.8812H160.116V34.7914H160.02V33.8812ZM160.562 33.7969H160.662L160.972 34.5406L161.283 33.7969H161.383V34.7914H161.288V34.0144L160.999 34.7004H160.944L160.653 34.0144V34.7914H160.562V33.7969Z" fill="white"/>
<path d="M62.0022 34.7897V16.6971H65.5053V22.6909C66.1602 21.2191 66.9394 19.9759 67.8829 18.8904C68.6776 17.9758 69.4923 17.2809 70.3714 16.7681C71.0463 16.373 71.6568 16.1443 72.2895 16.0488C72.4981 16.0178 72.7046 16 72.8977 16C73.4216 16 73.9056 16.1177 74.334 16.3508C74.7403 16.5705 75.0711 16.8991 75.3463 17.3608C75.5794 17.7515 75.7459 18.2044 75.8658 18.7883C75.9746 19.3144 76.0279 19.876 76.0301 20.4998C76.0301 20.6175 75.9657 20.6908 75.9013 20.7551L72.4582 24.1583C72.4759 23.5345 72.4582 22.9085 72.3982 22.2869C72.3938 22.2358 72.3894 22.1892 72.3849 22.147C72.3272 21.561 72.2162 20.7973 71.8721 20.0714C71.7678 19.8494 71.639 19.6452 71.4903 19.4653C71.235 19.1545 70.902 18.9969 70.5002 18.9969C70.3914 18.9969 70.276 19.008 70.1583 19.0325C69.6988 19.1213 69.2659 19.3099 68.7953 19.623C68.1226 20.0736 67.501 20.6575 66.8439 21.4611C66.4332 21.965 66.0359 22.5267 65.6296 23.1815C65.5741 23.2726 65.5475 23.3591 65.5475 23.4613V34.7941H62L62.0022 34.7897Z" fill="white"/>
</svg>
